<?xml version="1.0" encoding="UTF-8"?>
<svg xmlns="http://www.w3.org/2000/svg" xmlns:xlink="http://www.w3.org/1999/xlink" width="810pt" height="1439.999935pt" viewBox="0 0 810 1439.999935" version="1.2">
<g id="surface1">
<path style=" stroke:none;fill-rule:nonzero;fill:rgb(48.239136%,47.44873%,47.44873%);fill-opacity:1;" d="M 417.625 1002.40625 C 417.625 1002.40625 412.328125 1008.066406 403.570312 1007.96875 C 395.042969 1007.902344 388.734375 1002.164062 388.734375 1002.164062 L 390.550781 781.890625 L 419.375 782.105469 L 417.625 1002.40625 "/>
<path style=" stroke:none;fill-rule:nonzero;fill:rgb(63.139343%,8.628845%,14.118958%);fill-opacity:1;" d="M 549.753906 770.121094 C 543.417969 708.769531 481.675781 660.265625 405.945312 659.652344 C 330.226562 659.046875 267.730469 706.554688 260.375 767.789062 C 260.375 767.789062 306.699219 808.089844 404.742188 808.867188 C 515.488281 809.800781 549.753906 770.121094 549.753906 770.121094 "/>
<path style=" stroke:none;fill-rule:nonzero;fill:rgb(85.879517%,9.799194%,12.939453%);fill-opacity:1;" d="M 491.496094 684.066406 C 491.496094 684.066406 460.371094 703.765625 404.957031 703.3125 C 353.101562 702.894531 320.03125 682.667969 320.03125 682.667969 L 349.21875 496.558594 L 464.667969 497.46875 L 491.496094 684.066406 "/>
<path style=" stroke:none;fill-rule:nonzero;fill:rgb(77.648926%,9.01947%,11.369324%);fill-opacity:1;" d="M 404.722656 709.761719 C 457.304688 710.183594 490.652344 694.679688 500.320312 689.511719 C 497.605469 687.570312 494.824219 685.675781 491.933594 683.878906 C 476.804688 690.492188 447.023438 700.417969 404.847656 700.066406 C 365.140625 699.757812 335.113281 689.222656 319.746094 682.355469 C 316.78125 684.121094 313.917969 685.988281 311.132812 687.929688 C 321.089844 693.191406 355.476562 709.378906 404.722656 709.761719 "/>
<path style=" stroke:none;fill-rule:nonzero;fill:rgb(63.139343%,8.628845%,14.118958%);fill-opacity:1;" d="M 521.773438 495.324219 C 521.714844 502.839844 474.660156 521.890625 467.78125 521.816406 C 399.75 521.261719 413.125 521.378906 345.105469 520.824219 C 338.222656 520.777344 292.742188 500.996094 292.808594 493.449219 C 292.941406 479.4375 292.925781 478.769531 293.050781 464.773438 C 293.125 457.257812 298.707031 451.710938 305.554688 452.3125 C 373.484375 458.0625 441.679688 458.609375 509.703125 453.988281 C 516.5625 453.472656 522.066406 459.140625 521.984375 466.589844 C 521.910156 480.632812 521.886719 481.292969 521.773438 495.324219 "/>
<path style=" stroke:none;fill-rule:nonzero;fill:rgb(85.879517%,9.799194%,12.939453%);fill-opacity:1;" d="M 521.734375 461.34375 C 521.625 476.710938 470.238281 488.761719 407.023438 488.246094 C 343.835938 487.777344 292.664062 474.863281 292.785156 459.460938 C 292.914062 444.082031 344.261719 432.058594 407.488281 432.527344 C 470.710938 433.058594 521.859375 445.933594 521.734375 461.34375 "/>
<path style=" stroke:none;fill-rule:nonzero;fill:rgb(77.648926%,9.01947%,11.369324%);fill-opacity:1;" d="M 293.574219 461.9375 C 293.253906 463.015625 293.023438 464.152344 293.039062 465.433594 C 293.023438 467.019531 293.03125 468.648438 293.019531 470.296875 C 308.492188 482.167969 353.753906 491.070312 407.324219 491.507812 C 460.855469 491.9375 506.28125 483.804688 521.984375 472.117188 C 521.964844 470.503906 521.996094 468.902344 521.996094 467.269531 C 522.007812 466.007812 521.824219 464.878906 521.558594 463.773438 C 505.414062 475.210938 460.398438 483.1875 407.394531 482.75 C 354.382812 482.351562 309.453125 473.609375 293.574219 461.9375 "/>
</g>
</svg>
